<?xml version="1.0" standalone="no"?><!DOCTYPE svg PUBLIC "-//W3C//DTD SVG 1.1//EN" "http://www.w3.org/Graphics/SVG/1.1/DTD/svg11.dtd"><svg class="icon" width="128px" height="128.00px" viewBox="0 0 1024 1024" version="1.1" xmlns="http://www.w3.org/2000/svg"><path d="M372.95 513.88m-255.01 0a255.01 255.01 0 1 0 510.02 0 255.01 255.01 0 1 0-510.02 0Z" fill="#F8E868" /><path d="M214.88 280.43c-2.25 0-4.45-1.08-5.81-3.08a6.991 6.991 0 0 1 1.88-9.72c43.36-29.32 94.05-44.82 146.6-44.82 47.94 0 94.83 13.07 135.62 37.79 3.31 2 4.36 6.31 2.36 9.61-2 3.31-6.31 4.36-9.61 2.36-38.6-23.39-82.98-35.76-128.36-35.76-49.74 0-97.73 14.67-138.76 42.42a7.02 7.02 0 0 1-3.92 1.2zM139.03 360.29c-1.23 0-2.48-0.32-3.61-1.01-3.31-2-4.38-6.3-2.38-9.61a262.95 262.95 0 0 1 40.19-51.07 6.998 6.998 0 0 1 9.9 0.05 6.998 6.998 0 0 1-0.05 9.9 249.582 249.582 0 0 0-38.06 48.35c-1.3 2.19-3.62 3.39-5.99 3.39zM357.56 746.84c-69.99 0-135.78-27.25-185.27-76.74-49.49-49.49-76.74-115.29-76.74-185.27 0-24.22 3.31-48.21 9.82-71.31 1.05-3.72 4.92-5.88 8.64-4.84a7.005 7.005 0 0 1 4.84 8.64c-6.17 21.86-9.3 44.57-9.3 67.51 0 66.25 25.8 128.53 72.64 175.37s109.13 72.64 175.37 72.64c44.39 0 87.94-11.87 125.95-34.31 3.33-1.96 7.62-0.86 9.59 2.47s0.86 7.62-2.47 9.59c-40.16 23.71-86.18 36.25-133.07 36.25z" fill="#7C4924" /><path d="M427.866905 583.136671a270.12 240.33 73.261 1 0 460.292836-138.436051 270.12 240.33 73.261 1 0-460.292836 138.436051Z" fill="#F8E868" /><path d="M642.73 771.34c-43.31 0-86.75-12.53-126.64-37.08-59.63-36.68-104.19-95.84-125.46-166.58-21.28-70.74-16.75-144.66 12.74-208.15 29.63-63.77 80.87-109.39 144.28-128.47 63.42-19.07 131.32-9.29 191.21 27.55 59.63 36.68 104.18 95.84 125.46 166.58 21.28 70.74 16.75 144.66-12.74 208.15-29.63 63.77-80.87 109.39-144.28 128.47a223.355 223.355 0 0 1-64.57 9.53z m-30.55-535.78c-20.36 0-40.66 2.95-60.5 8.92-59.54 17.91-107.7 60.87-135.62 120.96-28.05 60.38-32.32 130.77-12.03 198.22 20.29 67.45 62.69 123.81 119.39 158.69 37.64 23.15 78.59 34.98 119.35 34.99 20.36 0 40.66-2.95 60.5-8.92 59.54-17.91 107.7-60.87 135.62-120.96 28.05-60.38 32.32-130.77 12.03-198.22-20.29-67.45-62.69-123.81-119.39-158.69-37.64-23.16-78.59-34.99-119.35-34.99z" fill="#7C4924" /><path d="M235.27 373.88m-27.4 0a27.4 27.4 0 1 0 54.8 0 27.4 27.4 0 1 0-54.8 0Z" fill="#FFA621" /><path d="M187.48 526.92m-27.4 0a27.4 27.4 0 1 0 54.8 0 27.4 27.4 0 1 0-54.8 0Z" fill="#FFA621" /><path d="M295.07 650.55m-27.4 0a27.4 27.4 0 1 0 54.8 0 27.4 27.4 0 1 0-54.8 0Z" fill="#FFA621" /><path d="M341.55 497.92m-27.4 0a27.4 27.4 0 1 0 54.8 0 27.4 27.4 0 1 0-54.8 0Z" fill="#FFA621" /><path d="M372.95 325.9m-27.4 0a27.4 27.4 0 1 0 54.8 0 27.4 27.4 0 1 0-54.8 0Z" fill="#FFA621" /><path d="M477.66 405.85m-27.4 0a27.4 27.4 0 1 0 54.8 0 27.4 27.4 0 1 0-54.8 0Z" fill="#FFA621" /><path d="M532.46 562.35m-27.4 0a27.4 27.4 0 1 0 54.8 0 27.4 27.4 0 1 0-54.8 0Z" fill="#FFA621" /><path d="M671.73 643.55m-27.4 0a27.4 27.4 0 1 0 54.8 0 27.4 27.4 0 1 0-54.8 0Z" fill="#FFA621" /><path d="M773.16 387.58m-13.7 0a13.7 13.7 0 1 0 27.4 0 13.7 13.7 0 1 0-27.4 0Z" fill="#FFA621" /><path d="M671.73 312.99m-13.7 0a13.7 13.7 0 1 0 27.4 0 13.7 13.7 0 1 0-27.4 0Z" fill="#FFA621" /><path d="M617.33 424.31m-23.03 0a23.03 23.03 0 1 0 46.06 0 23.03 23.03 0 1 0-46.06 0Z" fill="#FFA621" /><path d="M742.08 511.92m-23.03 0a23.03 23.03 0 1 0 46.06 0 23.03 23.03 0 1 0-46.06 0Z" fill="#FFA621" /><path d="M235.27 408.28c-18.97 0-34.4-15.43-34.4-34.4s15.43-34.4 34.4-34.4 34.4 15.43 34.4 34.4-15.43 34.4-34.4 34.4z m0-54.8c-11.25 0-20.4 9.15-20.4 20.4s9.15 20.4 20.4 20.4 20.4-9.15 20.4-20.4-9.15-20.4-20.4-20.4zM187.48 561.32c-18.97 0-34.4-15.43-34.4-34.4s15.43-34.4 34.4-34.4 34.4 15.43 34.4 34.4-15.44 34.4-34.4 34.4z m0-54.8c-11.25 0-20.4 9.15-20.4 20.4s9.15 20.4 20.4 20.4c11.25 0 20.4-9.15 20.4-20.4s-9.16-20.4-20.4-20.4zM295.07 684.95c-18.97 0-34.4-15.43-34.4-34.4s15.43-34.4 34.4-34.4 34.4 15.43 34.4 34.4-15.43 34.4-34.4 34.4z m0-54.8c-11.25 0-20.4 9.15-20.4 20.4s9.15 20.4 20.4 20.4c11.25 0 20.4-9.15 20.4-20.4s-9.15-20.4-20.4-20.4zM341.55 532.32c-18.97 0-34.4-15.43-34.4-34.4s15.43-34.4 34.4-34.4 34.4 15.43 34.4 34.4-15.43 34.4-34.4 34.4z m0-54.8c-11.25 0-20.4 9.15-20.4 20.4s9.15 20.4 20.4 20.4 20.4-9.15 20.4-20.4-9.15-20.4-20.4-20.4zM372.95 360.29c-18.97 0-34.4-15.43-34.4-34.4s15.43-34.4 34.4-34.4 34.4 15.43 34.4 34.4-15.44 34.4-34.4 34.4z m0-54.79c-11.25 0-20.4 9.15-20.4 20.4s9.15 20.4 20.4 20.4c11.25 0 20.4-9.15 20.4-20.4s-9.16-20.4-20.4-20.4zM477.66 440.25c-18.97 0-34.4-15.43-34.4-34.4s15.43-34.4 34.4-34.4 34.4 15.43 34.4 34.4-15.43 34.4-34.4 34.4z m0-54.79c-11.25 0-20.4 9.15-20.4 20.4s9.15 20.4 20.4 20.4 20.4-9.15 20.4-20.4-9.15-20.4-20.4-20.4zM532.46 596.75c-18.97 0-34.4-15.43-34.4-34.4s15.43-34.4 34.4-34.4 34.4 15.43 34.4 34.4-15.43 34.4-34.4 34.4z m0-54.8c-11.25 0-20.4 9.15-20.4 20.4s9.15 20.4 20.4 20.4c11.25 0 20.4-9.15 20.4-20.4s-9.15-20.4-20.4-20.4zM671.73 677.95c-18.97 0-34.4-15.43-34.4-34.4s15.43-34.4 34.4-34.4 34.4 15.43 34.4 34.4-15.44 34.4-34.4 34.4z m0-54.8c-11.25 0-20.4 9.15-20.4 20.4s9.15 20.4 20.4 20.4c11.25 0 20.4-9.15 20.4-20.4s-9.16-20.4-20.4-20.4zM773.16 408.28c-11.41 0-20.7-9.29-20.7-20.7s9.29-20.7 20.7-20.7 20.7 9.29 20.7 20.7-9.28 20.7-20.7 20.7z m0-27.4c-3.69 0-6.7 3-6.7 6.7s3 6.7 6.7 6.7 6.7-3.01 6.7-6.7-3-6.7-6.7-6.7zM671.73 333.69c-11.41 0-20.7-9.29-20.7-20.7s9.29-20.7 20.7-20.7 20.7 9.29 20.7 20.7-9.29 20.7-20.7 20.7z m0-27.4c-3.69 0-6.7 3-6.7 6.7s3 6.7 6.7 6.7 6.7-3.01 6.7-6.7-3.01-6.7-6.7-6.7zM617.33 454.34c-16.56 0-30.03-13.47-30.03-30.03s13.47-30.03 30.03-30.03c16.56 0 30.03 13.47 30.03 30.03s-13.47 30.03-30.03 30.03z m0-46.06c-8.84 0-16.03 7.19-16.03 16.03s7.19 16.03 16.03 16.03 16.03-7.19 16.03-16.03-7.19-16.03-16.03-16.03zM742.08 541.95c-16.56 0-30.03-13.47-30.03-30.03s13.47-30.03 30.03-30.03c16.56 0 30.03 13.47 30.03 30.03s-13.47 30.03-30.03 30.03z m0-46.06c-8.84 0-16.03 7.19-16.03 16.03s7.19 16.03 16.03 16.03 16.03-7.19 16.03-16.03-7.19-16.03-16.03-16.03z" fill="#7C4924" /></svg>